<svg aria-hidden="true" style="position: absolute; width: 0; height: 0; overflow: hidden;" version="1.1" xmlns="http://www.w3.org/2000/svg" xmlns:xlink="http://www.w3.org/1999/xlink">
<defs>
<symbol id="icon-add-outline" viewBox="0 0 20 20">
<title>add-outline</title>
<path d="M11 9h4v2h-4v4h-2v-4h-4v-2h4v-4h2v4zM10 20c-5.523 0-10-4.477-10-10s4.477-10 10-10v0c5.523 0 10 4.477 10 10s-4.477 10-10 10v0zM10 18c4.418 0 8-3.582 8-8s-3.582-8-8-8v0c-4.418 0-8 3.582-8 8s3.582 8 8 8v0z"></path>
</symbol>
<symbol id="icon-add-solid" viewBox="0 0 20 20">
<title>add-solid</title>
<path d="M11 9v-4h-2v4h-4v2h4v4h2v-4h4v-2h-4zM10 20c-5.523 0-10-4.477-10-10s4.477-10 10-10v0c5.523 0 10 4.477 10 10s-4.477 10-10 10v0z"></path>
</symbol>
<symbol id="icon-badge" viewBox="0 0 20 20">
<title>badge</title>
<path d="M10 12c-3.314 0-6-2.686-6-6s2.686-6 6-6v0c3.314 0 6 2.686 6 6s-2.686 6-6 6v0zM10 9c1.657 0 3-1.343 3-3s-1.343-3-3-3v0c-1.657 0-3 1.343-3 3s1.343 3 3 3v0zM14 11.75v8.25l-4-4-4 4v-8.25c1.115 0.79 2.502 1.262 4 1.262s2.885-0.473 4.022-1.277l-0.022 0.015z"></path>
</symbol>
<symbol id="icon-calendar" viewBox="0 0 20 20">
<title>calendar</title>
<path d="M1 4c0-1.1 0.9-2 2-2h14c1.105 0 2 0.895 2 2v0 14c0 1.105-0.895 2-2 2v0h-14c-1.105 0-2-0.895-2-2v0-14zM3 6v12h14v-12h-14zM5 0h2v2h-2v-2zM13 0h2v2h-2v-2zM5 9h2v2h-2v-2zM5 13h2v2h-2v-2zM9 9h2v2h-2v-2zM9 13h2v2h-2v-2zM13 9h2v2h-2v-2zM13 13h2v2h-2v-2z"></path>
</symbol>
<symbol id="icon-cog" viewBox="0 0 20 20">
<title>cog</title>
<path d="M3.94 6.5l-1.72-2.86 1.42-1.42 2.86 1.72c0.52-0.3 1.1-0.54 1.7-0.7l0.8-3.24h2l0.8 3.24c0.6 0.16 1.18 0.4 1.7 0.7l2.86-1.72 1.42 1.42-1.72 2.86c0.3 0.52 0.54 1.1 0.7 1.7l3.24 0.8v2l-3.24 0.8c-0.16 0.6-0.4 1.18-0.7 1.7l1.72 2.86-1.42 1.42-2.86-1.72c-0.52 0.3-1.1 0.54-1.7 0.7l-0.8 3.24h-2l-0.8-3.24c-0.6-0.16-1.18-0.4-1.7-0.7l-2.86 1.72-1.42-1.42 1.72-2.86c-0.3-0.52-0.54-1.1-0.7-1.7l-3.24-0.8v-2l3.24-0.8c0.16-0.6 0.4-1.18 0.7-1.7zM10 13c1.657 0 3-1.343 3-3s-1.343-3-3-3v0c-1.657 0-3 1.343-3 3s1.343 3 3 3v0z"></path>
</symbol>
<symbol id="icon-conversation" viewBox="0 0 20 20">
<title>conversation</title>
<path d="M17 11v3l-3-3h-6c-1.105 0-2-0.895-2-2v0-7c0-1.1 0.9-2 2-2h10c1.105 0 2 0.895 2 2v0 7c0 1.105-0.895 2-2 2v0h-1zM14 13v2c0 1.105-0.895 2-2 2v0h-6l-3 3v-3h-1c-1.105 0-2-0.895-2-2v0-7c0-1.1 0.9-2 2-2h2v3c0 2.209 1.791 4 4 4v0h6z"></path>
</symbol>
<symbol id="icon-edit-pencil" viewBox="0 0 20 20">
<title>edit-pencil</title>
<path d="M12.3 3.7l4 4-12.3 12.3h-4v-4l12.3-12.3zM13.7 2.3l2.3-2.3 4 4-2.3 2.3-4-4z"></path>
</symbol>
<symbol id="icon-globe" viewBox="0 0 20 20">
<title>globe</title>
<path d="M10 20c-5.523 0-10-4.477-10-10s4.477-10 10-10v0c5.523 0 10 4.477 10 10s-4.477 10-10 10v0zM12 17.75c1.602-0.424 2.964-1.287 3.993-2.451l0.007-0.009v-6.29c-1.105 0-2-0.895-2-2v0-3.93c-0.864-0.506-1.879-0.86-2.961-0.996l-0.039-0.004v0.93c0 1.105-0.895 2-2 2v0 1c0 1.105-0.895 2-2 2v0 2h3c1.105 0 2 0.895 2 2v0 5.75zM8 17.75v-2.75c-1.105 0-2-0.895-2-2v0-1h-0.5c-0.828 0-1.5-0.672-1.5-1.5v0-2.5h-1.75c-0.16 0.599-0.253 1.287-0.253 1.996 0 3.71 2.523 6.832 5.947 7.742l0.056 0.013z"></path>
</symbol>
<symbol id="icon-heart" viewBox="0 0 20 20">
<title>heart</title>
<path d="M10 3.22l-0.61-0.6c-0.983-0.931-2.314-1.504-3.779-1.504-3.038 0-5.5 2.462-5.5 5.5 0 1.462 0.571 2.791 1.501 3.776l-0.002-0.003 8.39 8.39 8.39-8.4c0.928-0.983 1.499-2.312 1.499-3.774 0-3.038-2.462-5.5-5.5-5.5-1.465 0-2.796 0.573-3.782 1.506l0.003-0.002-0.61 0.61z"></path>
</symbol>
<symbol id="icon-information-outline" viewBox="0 0 20 20">
<title>information-outline</title>
<path d="M2.93 17.070c-1.884-1.821-3.053-4.37-3.053-7.193 0-5.523 4.477-10 10-10 2.823 0 5.372 1.169 7.19 3.050l0.003 0.003c1.737 1.796 2.807 4.247 2.807 6.947 0 5.523-4.477 10-10 10-2.7 0-5.151-1.070-6.95-2.81l0.003 0.003zM15.66 15.66c1.449-1.449 2.344-3.45 2.344-5.66 0-4.421-3.584-8.004-8.004-8.004-2.21 0-4.211 0.896-5.66 2.344v0c-1.449 1.449-2.344 3.45-2.344 5.66 0 4.421 3.584 8.004 8.004 8.004 2.21 0 4.211-0.896 5.66-2.344v0zM9 11v-2h2v6h-2v-4zM9 5h2v2h-2v-2z"></path>
</symbol>
<symbol id="icon-information-solid" viewBox="0 0 20 20">
<title>information-solid</title>
<path d="M2.93 17.070c-1.884-1.821-3.053-4.37-3.053-7.193 0-5.523 4.477-10 10-10 2.823 0 5.372 1.169 7.19 3.050l0.003 0.003c1.737 1.796 2.807 4.247 2.807 6.947 0 5.523-4.477 10-10 10-2.7 0-5.151-1.070-6.95-2.81l0.003 0.003zM9 11v4h2v-6h-2v2zM9 5v2h2v-2h-2z"></path>
</symbol>
<symbol id="icon-light-bulb" viewBox="0 0 20 20">
<title>light-bulb</title>
<path d="M7 13.33c-2.384-1.15-4-3.549-4-6.325 0-3.866 3.134-7 7-7s7 3.134 7 7c0 2.776-1.616 5.174-3.958 6.306l-0.042 0.018v2.67h-6v-2.67zM7 17h6v1.5c0 0.83-0.67 1.5-1.5 1.5h-3c-0.828 0-1.5-0.672-1.5-1.5v0-1.5zM9 11.9v2.1h2v-2.1c2.299-0.481 4-2.492 4-4.899 0-2.761-2.239-5-5-5s-5 2.239-5 5c0 2.407 1.701 4.417 3.967 4.893l0.033 0.006z"></path>
</symbol>
<symbol id="icon-notifications" viewBox="0 0 20 20">
<title>notifications</title>
<path d="M4 8c0-0.001 0-0.002 0-0.003 0-2.608 1.664-4.827 3.988-5.654l0.042-0.013c-0.016-0.095-0.025-0.204-0.025-0.315 0-1.105 0.895-2 2-2s2 0.895 2 2c0 0.111-0.009 0.22-0.027 0.327l0.002-0.012c2.361 0.843 4.020 3.060 4.020 5.664 0 0.002 0 0.004 0 0.006v-0 6l3 2v1h-18v-1l3-2v-6zM12 18c0 1.105-0.895 2-2 2s-2-0.895-2-2v0h4z"></path>
</symbol>
<symbol id="icon-notifications-outline" viewBox="0 0 20 20">
<title>notifications-outline</title>
<path d="M6 8v7h8v-7c0-2.209-1.791-4-4-4s-4 1.791-4 4v0zM8.030 2.33c-0.016-0.095-0.025-0.204-0.025-0.315 0-1.105 0.895-2 2-2s2 0.895 2 2c0 0.111-0.009 0.22-0.027 0.327l0.002-0.012c2.361 0.843 4.020 3.060 4.020 5.664 0 0.002 0 0.004 0 0.006v-0 6l3 2v1h-18v-1l3-2v-6c0-0.001 0-0.002 0-0.003 0-2.608 1.664-4.827 3.988-5.654l0.042-0.013zM12 18c0 1.105-0.895 2-2 2s-2-0.895-2-2v0h4z"></path>
</symbol>
<symbol id="icon-question" viewBox="0 0 20 20">
<title>question</title>
<path d="M10 20c-5.523 0-10-4.477-10-10s4.477-10 10-10v0c5.523 0 10 4.477 10 10s-4.477 10-10 10v0zM12 7c0 0.28-0.21 0.8-0.42 1l-1.58 1.58c-0.57 0.58-1 1.6-1 2.42v1h2v-1c0-0.29 0.21-0.8 0.42-1l1.58-1.58c0.57-0.58 1-1.6 1-2.42 0-2.209-1.791-4-4-4s-4 1.791-4 4v0h2c0-1.105 0.895-2 2-2s2 0.895 2 2v0zM9 15v2h2v-2h-2z"></path>
</symbol>
<symbol id="icon-trophy" viewBox="0 0 20 20">
<title>trophy</title>
<path d="M15 9c1.657 0 3-1.343 3-3v0h2c0 0 0 0.001 0 0.001 0 2.761-2.239 5-5 5-0.035 0-0.070-0-0.105-0.001l0.005 0c-0.411 1.966-1.934 3.489-3.867 3.894l-0.033 0.006v2.1l5 2v1h-12v-1l5-2v-2.1c-1.966-0.411-3.489-1.934-3.894-3.867l-0.006-0.033h-0.1c-2.761 0-5-2.239-5-5v0h2c0 1.657 1.343 3 3 3v0-5h-3v2h-2v-4h5v-2h10v2h5v4h-2v-2h-3v5z"></path>
</symbol>
<symbol id="icon-user" viewBox="0 0 20 20">
<title>user</title>
<path d="M5 5c0-2.761 2.239-5 5-5s5 2.239 5 5v0 2c0 2.761-2.239 5-5 5s-5-2.239-5-5v0-2zM0 16.68c2.86-1.685 6.301-2.68 9.974-2.68 0.009 0 0.018 0 0.027 0h-0.001c3.64 0 7.060 0.97 10 2.68v3.32h-20v-3.32z"></path>
</symbol>
<symbol id="icon-user-solid-circle" viewBox="0 0 20 20">
<title>user-solid-circle</title>
<path d="M10 20c-5.523 0-10-4.477-10-10s4.477-10 10-10v0c5.523 0 10 4.477 10 10s-4.477 10-10 10v0zM7 6v2c0 1.657 1.343 3 3 3s3-1.343 3-3v0-2c0-1.657-1.343-3-3-3s-3 1.343-3 3v0zM3.35 14.44c1.456 2.155 3.89 3.553 6.65 3.553s5.194-1.398 6.632-3.525l0.018-0.028c-1.951-0.918-4.238-1.453-6.65-1.453s-4.699 0.536-6.748 1.495l0.098-0.041z"></path>
</symbol>
<symbol id="icon-user-solid-square" viewBox="0 0 20 20">
<title>user-solid-square</title>
<path d="M0 2c0-1.1 0.9-2 2-2h16c1.105 0 2 0.895 2 2v0 16c0 1.105-0.895 2-2 2v0h-16c-1.105 0-2-0.895-2-2v0-16zM7 6v2c0 1.657 1.343 3 3 3s3-1.343 3-3v0-2c0-1.657-1.343-3-3-3s-3 1.343-3 3v0zM18 15.14c-2.287-1.345-5.038-2.14-7.975-2.14-0.009 0-0.018 0-0.026 0h0.001c-2.91 0-5.65 0.78-8 2.14v2.86h16v-2.86z"></path>
</symbol>
<symbol id="icon-bookmark" viewBox="0 0 20 20">
<title>bookmark</title>
<path d="M14 2v17l-4-4-4 4v-17c0-0.553 0.585-1.020 1-1h6c0.689-0.020 1 0.447 1 1z"></path>
</symbol>
<symbol id="icon-chevron-thin-right" viewBox="0 0 20 20">
<title>chevron-thin-right</title>
<path d="M13.25 10l-7.141-7.42c-0.268-0.27-0.268-0.707 0-0.979 0.268-0.27 0.701-0.27 0.969 0l7.83 7.908c0.268 0.271 0.268 0.709 0 0.979l-7.83 7.908c-0.268 0.271-0.701 0.27-0.969 0s-0.268-0.707 0-0.979l7.141-7.417z"></path>
</symbol>
<symbol id="icon-aircraft-take-off" viewBox="0 0 20 20">
<title>aircraft-take-off</title>
<path d="M19.87 6.453c0.119 0.257 0.127 1.29-4.884 3.642l-4.913 2.306c-1.71 0.803-4.191 1.859-5.285 2.151-0.766 0.204-1.497-0.316-1.497-0.316s-2.206-1.975-2.792-2.419c-0.585-0.444-0.535-0.67 0.215-0.91 0.467-0.149 3.13 0.493 4.265 0.78 1.339-0.8 2.562-1.486 3.141-1.798-1.396-1.033-4.008-2.962-4.841-3.55-0.799-0.565 0.010-0.768 0.010-0.768 0.368-0.099 1.162-0.228 1.562-0.144 2.721 0.569 7.263 2.071 7.611 2.186 0.832-0.436 2.128-1.092 2.922-1.465 2.075-0.974 4.327-0.037 4.486 0.305z"></path>
</symbol>
<symbol id="icon-bar-graph" viewBox="0 0 20 20">
<title>bar-graph</title>
<path d="M17 1h-2c-0.552 0-1 0.447-1 1v16.992h4v-16.992c0-0.553-0.447-1-1-1zM11 7h-2c-0.552 0-1 0.447-1 1v10.992h4v-10.992c0-0.553-0.447-1-1-1zM5 13h-2c-0.552 0-1 0.447-1 1v4.992h4v-4.992c0-0.553-0.447-1-1-1z"></path>
</symbol>
<symbol id="icon-bell" viewBox="0 0 20 20">
<title>bell</title>
<path d="M14.65 8.512c-2.28-4.907-3.466-6.771-7.191-6.693-1.327 0.027-1.009-0.962-2.021-0.587-1.010 0.375-0.143 0.924-1.177 1.773-2.902 2.383-2.635 4.587-1.289 9.84 0.567 2.213-1.367 2.321-0.602 4.465 0.559 1.564 4.679 2.219 9.025 0.607s7.086-4.814 6.527-6.378c-0.765-2.145-2.311-0.961-3.272-3.027zM10.924 16.595c-3.882 1.44-7.072 0.594-7.207 0.217-0.232-0.65 1.253-2.816 5.691-4.463s6.915-1.036 7.174-0.311c0.153 0.429-1.775 3.116-5.658 4.557zM9.676 13.101c-2.029 0.753-3.439 1.614-4.353 2.389 0.643 0.584 1.847 0.726 3.046 0.281 1.527-0.565 2.466-1.866 2.095-2.904-0.005-0.013-0.011-0.023-0.016-0.036-0.251 0.082-0.508 0.171-0.772 0.27z"></path>
</symbol>
<symbol id="icon-calendar1" viewBox="0 0 20 20">
<title>calendar1</title>
<path d="M17 3h-1v2h-3v-2h-6v2h-3v-2h-1c-1.101 0-2 0.9-2 2v12c0 1.1 0.899 2 2 2h14c1.1 0 2-0.9 2-2v-12c0-1.1-0.9-2-2-2zM17 17h-14v-8h14v8zM6.5 1h-2v3.5h2v-3.5zM15.5 1h-2v3.5h2v-3.5z"></path>
</symbol>
<symbol id="icon-chat" viewBox="0 0 20 20">
<title>chat</title>
<path d="M5.8 12.2v-6.2h-3.8c-1.1 0-2 0.9-2 2v6c0 1.1 0.9 2 2 2h1v3l3-3h5c1.1 0 2-0.9 2-2v-1.82c-0.064 0.014-0.132 0.021-0.2 0.021l-7-0.001zM18 1h-9c-1.1 0-2 0.9-2 2v8h7l3 3v-3h1c1.1 0 2-0.899 2-2v-6c0-1.1-0.9-2-2-2z"></path>
</symbol>
<symbol id="icon-home" viewBox="0 0 20 20">
<title>home</title>
<path d="M18.672 11h-1.672v6c0 0.445-0.194 1-1 1h-4v-6h-4v6h-4c-0.806 0-1-0.555-1-1v-6h-1.672c-0.598 0-0.47-0.324-0.060-0.748l8.024-8.032c0.195-0.202 0.451-0.302 0.708-0.312 0.257 0.010 0.513 0.109 0.708 0.312l8.023 8.031c0.411 0.425 0.539 0.749-0.059 0.749z"></path>
</symbol>
<symbol id="icon-key" viewBox="0 0 20 20">
<title>key</title>
<path d="M17.691 4.725c-0.503-2.977-3.22-4.967-6.069-4.441s-5.256 2.816-4.753 5.795c0.107 0.641 0.408 1.644 0.763 2.365l-5.175 7.723c-0.191 0.285-0.299 0.799-0.242 1.141l0.333 1.971c0.058 0.342 0.372 0.572 0.7 0.514l1.516-0.281c0.328-0.059 0.744-0.348 0.924-0.639l2.047-3.311 0.018-0.022 1.386-0.256 2.39-3.879c0.785 0.139 1.912 0.092 2.578-0.031 2.848-0.526 4.087-3.67 3.584-6.649zM15.166 6.252c-0.784 1.17-1.584 0.346-2.703-0.475-1.119-0.818-2.135-1.322-1.352-2.492s2.326-1.455 3.447-0.635c1.12 0.819 1.391 2.432 0.608 3.602z"></path>
</symbol>
<symbol id="icon-list" viewBox="0 0 20 20">
<title>list</title>
<path d="M14.4 9h-5.8c-0.552 0-0.6 0.447-0.6 1s0.048 1 0.6 1h5.8c0.552 0 0.6-0.447 0.6-1s-0.048-1-0.6-1zM16.4 14h-7.8c-0.552 0-0.6 0.447-0.6 1s0.048 1 0.6 1h7.8c0.552 0 0.6-0.447 0.6-1s-0.048-1-0.6-1zM8.6 6h7.8c0.552 0 0.6-0.447 0.6-1s-0.048-1-0.6-1h-7.8c-0.552 0-0.6 0.447-0.6 1s0.048 1 0.6 1zM5.4 9h-1.8c-0.552 0-0.6 0.447-0.6 1s0.048 1 0.6 1h1.8c0.552 0 0.6-0.447 0.6-1s-0.048-1-0.6-1zM5.4 14h-1.8c-0.552 0-0.6 0.447-0.6 1s0.048 1 0.6 1h1.8c0.552 0 0.6-0.447 0.6-1s-0.048-1-0.6-1zM5.4 4h-1.8c-0.552 0-0.6 0.447-0.6 1s0.048 1 0.6 1h1.8c0.552 0 0.6-0.447 0.6-1s-0.048-1-0.6-1z"></path>
</symbol>
<symbol id="icon-location-pin" viewBox="0 0 20 20">
<title>location-pin</title>
<path d="M10 2.009c-2.762 0-5 2.229-5 4.99 0 4.774 5 11 5 11s5-6.227 5-11c0-2.76-2.238-4.99-5-4.99zM10 9.76c-1.492 0-2.7-1.209-2.7-2.7s1.208-2.7 2.7-2.7c1.49 0 2.699 1.209 2.699 2.7s-1.209 2.7-2.699 2.7z"></path>
</symbol>
<symbol id="icon-magnifying-glass" viewBox="0 0 20 20">
<title>magnifying-glass</title>
<path d="M17.545 15.467l-3.779-3.779c0.57-0.935 0.898-2.035 0.898-3.21 0-3.417-2.961-6.377-6.378-6.377s-6.186 2.769-6.186 6.186c0 3.416 2.961 6.377 6.377 6.377 1.137 0 2.2-0.309 3.115-0.844l3.799 3.801c0.372 0.371 0.975 0.371 1.346 0l0.943-0.943c0.371-0.371 0.236-0.84-0.135-1.211zM4.004 8.287c0-2.366 1.917-4.283 4.282-4.283s4.474 2.107 4.474 4.474c0 2.365-1.918 4.283-4.283 4.283s-4.473-2.109-4.473-4.474z"></path>
</symbol>
<symbol id="icon-map" viewBox="0 0 20 20">
<title>map</title>
<path d="M19.447 3.718l-6-3c-0.281-0.141-0.613-0.141-0.895 0l-5.63 2.815-5.606-1.869c-0.306-0.102-0.64-0.051-0.901 0.138s-0.415 0.49-0.415 0.811v13.001c0 0.379 0.214 0.725 0.553 0.894l6 3c0.141 0.070 0.294 0.106 0.447 0.106s0.307-0.035 0.447-0.106l5.63-2.814 5.606 1.869c0.305 0.1 0.64 0.049 0.901-0.139s0.415-0.49 0.415-0.81v-13.002c0.001-0.379-0.213-0.725-0.552-0.894zM8 5.231l4-2v11.763l-4 2v-11.763zM2 4l4 1.333v11.661l-4-2v-10.994zM18 16.227l-4-1.334v-11.662l4 2v10.996z"></path>
</symbol>
<symbol id="icon-message" viewBox="0 0 20 20">
<title>message</title>
<path d="M18 6v7c0 1.1-0.9 2-2 2h-4v3l-4-3h-4c-1.101 0-2-0.9-2-2v-7c0-1.1 0.899-2 2-2h12c1.1 0 2 0.9 2 2z"></path>
</symbol>
<symbol id="icon-news" viewBox="0 0 20 20">
<title>news</title>
<path d="M14 5h-4v2h4v-2zM14 8h-4v1h4v-1zM9 5h-3v4h3v-4zM9 11h5v-1h-5v1zM12 13h2v-1h-2v1zM14 14h-8v1h8v-1zM11 12h-5v1h5v-1zM8 10h-2v1h2v-1zM17 1h-14c-0.553 0-1 0.447-1 1v16c0 0.552 0.447 1 1 1h14c0.553 0 1-0.448 1-1v-16c0-0.552-0.447-1-1-1zM16 17h-12v-14h12v14z"></path>
</symbol>
<symbol id="icon-shield" viewBox="0 0 20 20">
<title>shield</title>
<path d="M17.604 3.332c-4.614 0.668-5.529-0.499-7.604-2.332-2.075 1.833-2.99 3-7.604 2.332-2.459 12.248 7.604 15.668 7.604 15.668s10.063-3.42 7.604-15.668zM12.473 13.309l-2.473-1.3-2.472 1.3 0.472-2.753-2-1.95 2.764-0.401 1.236-2.505 1.236 2.505 2.764 0.401-2 1.949 0.473 2.754z"></path>
</symbol>
<symbol id="icon-star" viewBox="0 0 20 20">
<title>star</title>
<path d="M10 1.3l2.388 6.722h6.412l-5.232 3.948 1.871 6.928-5.439-4.154-5.438 4.154 1.87-6.928-5.233-3.948h6.412l2.389-6.722z"></path>
</symbol>
<symbol id="icon-time-slot" viewBox="0 0 20 20">
<title>time-slot</title>
<path d="M10 0.4c-5.302 0-9.6 4.298-9.6 9.6s4.298 9.6 9.6 9.6c5.301 0 9.6-4.298 9.6-9.601 0-5.301-4.299-9.599-9.6-9.599zM10 17.599c-4.197 0-7.6-3.402-7.6-7.6 0-4.197 3.402-7.6 7.6-7.6v0 7.601l6.792-3.396c0.513 1.023 0.808 2.173 0.808 3.396 0 4.197-3.403 7.599-7.6 7.599z"></path>
</symbol>
<symbol id="icon-traffic-cone" viewBox="0 0 20 20">
<title>traffic-cone</title>
<path d="M10 12.078c2.39 0 4.392-0.812 4.513-1.873-0.356-0.996-0.744-2.084-1.125-3.152-0.264 0.761-1.725 1.301-3.388 1.301s-3.124-0.54-3.388-1.301c-0.381 1.068-0.769 2.156-1.124 3.152 0.121 1.061 2.122 1.873 4.512 1.873zM10 5.373c1.124 0 2.167-0.348 2.473-0.889-0.421-1.182-0.782-2.197-1.011-2.836-0.152-0.427-0.841-0.648-1.462-0.648s-1.31 0.221-1.462 0.648c-0.228 0.639-0.59 1.654-1.011 2.836 0.306 0.541 1.35 0.889 2.473 0.889zM18.78 13.066l-3.755-1.514 0.433 1.207c-0.022 1.279-2.504 2.299-5.458 2.299s-5.437-1.019-5.458-2.299l0.433-1.207-3.755 1.514c-1.053 0.424-1.098 1.209-0.098 1.744l7.062 3.787c0.998 0.535 2.633 0.535 3.632 0l7.063-3.787c0.999-0.535 0.954-1.32-0.099-1.744z"></path>
</symbol>
<symbol id="icon-user1" viewBox="0 0 20 20">
<title>user1</title>
<path d="M7.725 2.146c-1.016 0.756-1.289 1.953-1.239 2.59 0.064 0.779 0.222 1.793 0.222 1.793s-0.313 0.17-0.313 0.854c0.109 1.717 0.683 0.976 0.801 1.729 0.284 1.814 0.933 1.491 0.933 2.481 0 1.649-0.68 2.42-2.803 3.334-2.13 0.918-4.326 2.073-4.326 4.073v1h18v-1c0-2-2.197-3.155-4.328-4.072-2.123-0.914-2.801-1.684-2.801-3.334 0-0.99 0.647-0.667 0.932-2.481 0.119-0.753 0.692-0.012 0.803-1.729 0-0.684-0.314-0.854-0.314-0.854s0.158-1.014 0.221-1.793c0.065-0.817-0.398-2.561-2.3-3.096-0.333-0.34-0.558-0.881 0.466-1.424-2.24-0.105-2.761 1.067-3.954 1.929z"></path>
</symbol>
<symbol id="icon-bubbles2" viewBox="0 0 36 32">
<title>bubbles2</title>
<path d="M15 0v0c8.284 0 15 5.435 15 12.139s-6.716 12.139-15 12.139c-0.796 0-1.576-0.051-2.339-0.147-3.222 3.209-6.943 3.785-10.661 3.869v-0.785c2.008-0.98 3.625-2.765 3.625-4.804 0-0.285-0.022-0.564-0.063-0.837-3.392-2.225-5.562-5.625-5.562-9.434 0-6.704 6.716-12.139 15-12.139zM31.125 27.209c0 1.748 1.135 3.278 2.875 4.118v0.673c-3.223-0.072-6.181-0.566-8.973-3.316-0.661 0.083-1.337 0.126-2.027 0.126-2.983 0-5.732-0.805-7.925-2.157 4.521-0.016 8.789-1.464 12.026-4.084 1.631-1.32 2.919-2.87 3.825-4.605 0.961-1.84 1.449-3.799 1.449-5.825 0-0.326-0.014-0.651-0.039-0.974 2.268 1.873 3.664 4.426 3.664 7.24 0 3.265-1.88 6.179-4.82 8.086-0.036 0.234-0.055 0.474-0.055 0.718z"></path>
</symbol>
</defs>
</svg>
